<?xml version="1.0" encoding="UTF-8" standalone="no"?>
<!-- Created with Inkscape (http://www.inkscape.org/) -->

<svg
   xmlns:dc="http://purl.org/dc/elements/1.1/"
   xmlns:cc="http://creativecommons.org/ns#"
   xmlns:rdf="http://www.w3.org/1999/02/22-rdf-syntax-ns#"
   xmlns:svg="http://www.w3.org/2000/svg"
   xmlns="http://www.w3.org/2000/svg"
   xmlns:sodipodi="http://sodipodi.sourceforge.net/DTD/sodipodi-0.dtd"
   xmlns:inkscape="http://www.inkscape.org/namespaces/inkscape"
   width="210mm"
   height="297mm"
   viewBox="0 0 210 297"
   version="1.1"
   id="svg8"
   inkscape:version="0.92.4 (5da689c313, 2019-01-14)"
   sodipodi:docname="logo.svg">
  <defs
     id="defs2" />
  <sodipodi:namedview
     id="base"
     pagecolor="#ffffff"
     bordercolor="#666666"
     borderopacity="1.0"
     inkscape:pageopacity="0.0"
     inkscape:pageshadow="2"
     inkscape:zoom="0.70710678"
     inkscape:cx="435.80756"
     inkscape:cy="469.37898"
     inkscape:document-units="mm"
     inkscape:current-layer="layer1-8"
     showgrid="false"
     inkscape:window-width="1920"
     inkscape:window-height="1017"
     inkscape:window-x="1677"
     inkscape:window-y="-8"
     inkscape:window-maximized="1"
     showguides="true"
     inkscape:guide-bbox="true" />
  <metadata
     id="metadata5">
    <rdf:RDF>
      <cc:Work
         rdf:about="">
        <dc:format>image/svg+xml</dc:format>
        <dc:type
           rdf:resource="http://purl.org/dc/dcmitype/StillImage" />
        <dc:title />
      </cc:Work>
    </rdf:RDF>
  </metadata>
  <g
     inkscape:label="Calque 1"
     inkscape:groupmode="layer"
     id="layer1">
    <g
       inkscape:label="Calque 1"
       id="layer1-8"
       transform="matrix(2.2423038,0,0,2.2423038,-18.066491,25.496096)">
      <path
         style="fill:#000000;stroke-width:2.24230099"
         d="M 648.76953 134.19336 C 571.34015 179.64587 505.80441 369.35363 499.90625 387.92188 C 470.99863 381.07454 420.04735 376.99736 395.13281 378.65625 C 370.21828 380.31515 329.1475 386.20303 295.79492 410.20898 L 289.27344 398.69727 C 270.66177 365.85063 259.54948 349.54103 228.10938 308.91992 C 179.67021 246.33555 134.21655 205.04514 91.302734 184.64453 C 69.682318 174.36653 55.279421 170.38671 44.410156 171.68555 C 37.969042 172.45528 36.23722 174.06591 32.3125 182.94922 C 25.044054 199.40091 20.896462 223.96916 24.263672 287.42383 C 26.661622 332.61263 31.400833 351.72788 35.910156 373.20508 C 48.569081 433.49783 63.758881 477.46321 89.011719 526.91797 L 102.22461 552.79492 C 71.459001 608.01887 47.629035 687.81118 60.449219 759.08398 C 70.261323 806.347 97.944198 857.15086 133.1543 892.50977 L 150.25977 909.6875 C 144.73209 949.21898 139.75262 983.82059 133.3125 1025.9551 C 131.19291 1039.845 127.54442 1049.8005 135.73633 1053.8984 C 143.77992 1059.2834 149.38372 1053.0761 161.99414 1046.7988 C 180.74711 1038.0673 210.55983 1021.8441 273.47266 991.79688 L 288.22656 998.29492 C 306.3956 1006.2979 341.61377 1015.7986 370.74609 1020.5566 C 424.40557 1029.12 486.84728 1025.6328 542.90625 1007.6973 C 591.46394 989.38896 653.67922 938.94543 675.68555 888.36133 C 675.06476 887.75492 668.9073 890.71567 662.00195 894.94141 C 607.8262 928.09467 560.39553 948.83598 505.87891 963.21094 C 474.44724 971.49909 448.45027 973.6281 413.13086 970.81055 C 360.76412 966.3465 295.58672 947.42045 240.22852 919.85156 C 212.02347 907.91664 162.65849 868.60891 146.58789 839.99805 C 130.51729 811.38719 117.95452 791.33833 109.69922 737.70312 C 103.58538 697.98108 109.8297 656.88193 116.4043 630.27344 C 122.15484 607.321 144.07812 552.46875 144.07812 552.46875 C 144.07812 552.46875 103.28817 464.61547 93.308594 432.38867 C 83.058077 399.28693 61.64637 327.35195 55.183594 272.03125 C 52.765567 251.27365 50.610682 193.81802 54.107422 191.56641 C 57.604162 189.31479 69.162673 193.65419 79.46875 201.4668 C 89.774827 209.2794 171.09972 266.70297 219.55078 329.70508 C 236.23556 351.40059 254.81315 377.17362 260.83594 386.98047 C 269.80368 401.58261 285.92184 425.31202 289.41602 429.52734 C 321.8546 408.9531 364.60103 396.91939 395.6582 394.08594 C 426.71538 391.25248 474.94046 396.37678 509.2207 405.38867 C 541.10687 315.68433 593.24785 197.27554 648.91406 150.00977 C 655.87872 150.79497 677.92475 196.10224 691.39648 238.0625 C 704.86822 280.02276 745.38499 383.64694 699.37891 537.83789 C 686.60199 583.79916 712.65201 541.61764 720.61719 511.76953 C 752.16175 412.2399 733.19222 273.38686 688.91211 186.58789 C 677.18775 163.60548 658.43846 134.2259 648.76953 134.19336 z M 652.52148 277.59961 C 650.3155 277.59525 647.66256 278.48671 644.30859 280.23047 C 636.79514 284.13678 619.98714 299.01351 602.36719 324.57422 C 577.98158 359.9495 579.16705 374.81675 588.5625 388.01367 C 597.95795 401.2106 602.27411 408.00161 614.03516 416.81445 C 625.7962 425.6273 629.15833 428.21341 637.13672 428.04883 C 651.01675 427.76252 656.06373 420.4841 663.59375 389.89062 C 672.14041 355.16644 672.6457 319.67113 664.93359 295.95117 C 660.87799 283.47735 658.159 277.61075 652.52148 277.59961 z M 136.48047 296.7168 C 131.50716 296.79478 128.55555 301.64857 124.74023 312.33398 C 120.73515 323.55095 118.65382 340.07533 118.65625 356.08203 C 118.66256 397.61264 125.37013 417.66397 133.25586 431.09961 C 141.14159 444.53525 159.30616 439.21242 172.67188 433.37891 C 186.03759 427.5454 196.09248 419.84075 200.38086 415.69141 C 214.8548 401.68672 217.94893 395.62976 200.05469 362.30859 C 187.15579 338.28923 166.2923 313.31261 150.45312 302.92578 C 144.23202 298.84617 139.88326 296.66344 136.48047 296.7168 z M 642.87891 300.83984 C 643.37309 300.85717 643.75404 301.06969 644.01367 301.47461 C 646.32183 305.07442 646.23196 331.31336 644.26758 347.69141 C 642.30319 364.06945 635.32006 386.75565 630.30078 390.80664 C 618.89502 381.10096 602.81445 363.83594 602.81445 363.83594 C 602.94072 361.35615 603.36668 353.47943 617.76367 330.38477 C 630.36104 310.17693 639.41962 300.71857 642.87891 300.83984 z M 147.9375 320.77734 C 150.9293 320.96507 161.41131 328.59046 176.75586 354.0957 C 193.12337 381.3013 191.13477 389.02539 191.13477 389.02539 C 191.13477 389.02539 185.68306 392.11647 178.31445 396.2168 L 161.63477 405.49805 C 157.92251 402.33716 151.97668 379.39618 149.62109 365.75977 C 147.06915 350.98649 144.89647 321.80829 147.43945 320.83594 C 147.57154 320.78543 147.73805 320.76483 147.9375 320.77734 z M 531.10742 482.9668 C 528.8125 482.99392 526.49414 483.05187 524.15039 483.13867 C 505.574 483.65951 488.47266 486.08941 472.84766 490.42969 C 457.22266 494.76997 449.23785 501.10612 448.89062 509.43945 C 448.19618 516.21029 448.10807 526.80121 448.62891 541.21094 C 449.32335 555.44705 449.93229 571.8533 450.45312 590.42969 C 442.2934 578.45052 429.18446 560.82834 411.12891 537.56445 C 393.24696 514.30056 378.31706 499.97765 366.33789 494.5957 C 358.17817 491.12348 346.45942 488.51931 331.18164 486.7832 C 316.07747 485.04709 300.97331 484.4401 285.86914 484.96094 C 270.93858 485.30816 257.65734 486.87066 246.02539 489.64844 C 234.56706 492.2526 228.49132 496.0727 227.79688 501.10742 C 223.80382 526.10742 221.28581 558.39909 220.24414 597.98242 C 219.20247 637.56576 219.11632 676.62825 219.98438 715.16992 C 221.02604 753.71159 222.84896 787.82617 225.45312 817.51367 C 228.2309 847.20117 231.52821 864.64909 235.34766 869.85742 C 238.64627 876.80187 255.92187 880.96853 287.17188 882.35742 C 318.59549 883.74631 340.7309 881.48872 353.57812 875.58594 C 357.9184 873.5026 361.47613 861.43728 364.25391 839.38867 C 367.03168 817.16645 369.72396 790.60395 372.32812 759.70117 C 374.93229 763.34701 381.09418 770.98524 390.81641 782.61719 C 400.53863 794.24913 411.30382 806.66298 423.10938 819.85742 C 434.91493 832.87826 446.45942 845.02973 457.74414 856.31445 C 469.02886 867.42556 477.62261 874.28451 483.52539 876.88867 C 487.69206 878.79839 495.50456 880.27279 506.96289 881.31445 C 518.59484 882.35612 530.66016 882.70464 543.16016 882.35742 C 555.83377 882.0102 567.38021 880.88043 577.79688 878.9707 C 588.21354 877.06098 594.46354 874.02409 596.54688 869.85742 C 598.4566 864.99631 600.27951 847.89497 602.01562 818.55469 C 603.75174 789.0408 604.87956 755.01237 605.40039 716.4707 C 606.09484 677.92903 606.09484 638.78038 605.40039 599.02344 C 604.87956 559.26649 603.31706 526.62826 600.71289 501.10742 C 599.84484 494.68381 591.5115 489.9082 575.71289 486.7832 C 562.04101 484.04883 547.17188 482.77691 531.10742 482.9668 z "
         transform="matrix(0.1179962,0,0,0.1179962,8.0571112,-11.370491)"
         id="path847" />
    </g>
  </g>
</svg>
